<svg xmlns="http://www.w3.org/2000/svg" viewBox="0 0 51 51" width="51" height="51"><path fill="#808080" fill-rule="evenodd" d="M 2 25 L 3 33 L 6 39 L 11 44 L 19 48 L 30 48 L 37 45 L 43 40 L 47 32 L 37 32 L 36 31 L 33 31 L 16 24 L 5 24 Z M 3 19 L 8 19 L 9 18 L 11 18 L 12 19 L 18 19 L 19 20 L 24 21 L 31 25 L 38 26 L 39 27 L 45 27 L 46 26 L 48 26 L 48 23 L 34 23 L 28 20 L 26 20 L 21 17 L 15 16 L 14 15 L 6 15 L 4 16 Z M 8 10 L 17 10 L 18 11 L 23 12 L 28 15 L 30 15 L 31 16 L 33 16 L 37 18 L 46 18 L 46 16 L 45 15 L 38 15 L 37 14 L 34 14 L 33 13 L 28 12 L 23 9 L 21 9 L 18 7 L 14 7 L 12 6 Z M 21 3 L 23 3 L 24 4 L 25 4 L 26 5 L 27 5 L 28 6 L 29 6 L 30 7 L 32 7 L 33 8 L 35 8 L 36 9 L 41 9 L 38 6 L 37 6 L 35 4 L 33 4 L 32 3 L 29 3 L 28 2 L 22 2 Z"/>
</svg>